<svg xmlns="http://www.w3.org/2000/svg" viewBox="0 0 2400 720" role="img" aria-labelledby="title desc">
  <title id="title">PiControl logo</title>
  <desc id="desc">PiControl wordmark with a browser window icon, pi symbol, chart, and sliders.</desc>
  <defs>
    <linearGradient id="blue" x1="0" y1="0" x2="1" y2="1">
      <stop offset="0" stop-color="#38bdf8"/>
      <stop offset="1" stop-color="#2563eb"/>
    </linearGradient>
    <filter id="softShadow" x="-20%" y="-20%" width="140%" height="140%">
      <feDropShadow dx="0" dy="10" stdDeviation="16" flood-color="#0b1a2d" flood-opacity="0.12"/>
    </filter>
  </defs>
  <rect width="2400" height="720" fill="#ffffff"/>
  <g transform="translate(345 205)" filter="url(#softShadow)">
    <rect x="0" y="0" width="450" height="310" rx="34" fill="#ffffff" stroke="#071a2f" stroke-width="13"/>
    <line x1="6.5" y1="69" x2="443.5" y2="69" stroke="#071a2f" stroke-width="13" stroke-linecap="round"/>
    <circle cx="55" cy="35" r="11" fill="#071a2f"/>
    <circle cx="98" cy="35" r="11" fill="#071a2f"/>
    <circle cx="141" cy="35" r="11" fill="#071a2f"/>
    <line x1="226" y1="69" x2="226" y2="276" stroke="#071a2f" stroke-width="6" stroke-linecap="round" opacity="0.75"/>
    <path d="M48 153c8-32 25-43 58-43h96v26h-58l-5 78c-3 38-16 56-46 56-26 0-38-13-34-38l14-96h-6c-20 0-31 10-37 30z" fill="url(#blue)"/>
    <path d="M95 137h117" stroke="url(#blue)" stroke-width="25" stroke-linecap="round"/>
    <polyline points="272,161 314,132 349,151 397,113" fill="none" stroke="url(#blue)" stroke-width="13" stroke-linecap="round" stroke-linejoin="round"/>
    <circle cx="272" cy="161" r="13" fill="url(#blue)"/>
    <circle cx="314" cy="132" r="13" fill="url(#blue)"/>
    <circle cx="349" cy="151" r="13" fill="url(#blue)"/>
    <circle cx="397" cy="113" r="13" fill="url(#blue)"/>
    <line x1="265" y1="207" x2="405" y2="207" stroke="#24364d" stroke-width="7" stroke-linecap="round"/>
    <line x1="265" y1="260" x2="405" y2="260" stroke="#24364d" stroke-width="7" stroke-linecap="round"/>
    <circle cx="338" cy="207" r="23" fill="#fff" stroke="url(#blue)" stroke-width="11"/>
    <circle cx="338" cy="260" r="23" fill="#fff" stroke="url(#blue)" stroke-width="11"/>
  </g>
  <text x="900" y="470" fill="#071a2f" font-family="Inter, ui-sans-serif, system-ui, -apple-system, BlinkMacSystemFont, 'Segoe UI', sans-serif" font-size="270" font-weight="800" letter-spacing="-10">PiControl</text>
</svg>
